<svg version="1.1" xmlns="http://www.w3.org/2000/svg" width="281.2pt" height="488pt" viewBox="0 0 281.2 488"><style type="text/css">.dashed {stroke-dasharray: 5,5} .dotted {stroke-dasharray: 1,5} .overlay {fill: none; pointer-events: all}</style><g><g transform="translate(4, 484)"><polygon stroke="#fffffe" stroke-opacity="0" fill="#ffffff" points="-4,4 -4,-484 277.2,-484 277.2,4"></polygon><g class="node"><title>issue</title><path stroke="#000000" fill="none" d="M 99.02,-462 m -68.3,0 a 68.3,18 0 1,0 136.6,0 a 68.3,18 0 1,0 -136.6,0"></path><text x="99.02" y="-457.8" text-anchor="middle" font-family="'Times-Roman',serif" font-size="14" fill="#000000">Tracking Issue</text></g><g class="node"><title>pending</title><path stroke="#000000" fill="none" d="M 99.02,-373.2 m -42.88,0 a 42.88,18 0 1,0 85.76,0 a 42.88,18 0 1,0 -85.76,0"></path><text x="99.02" y="-369" text-anchor="middle" font-family="'Times-Roman',serif" font-size="14" fill="#000000">Pending</text></g><g class="node"><title>under_review</title><path stroke="#000000" fill="none" d="M 99.02,-284.4 m -67.16,0 a 67.16,18 0 1,0 134.32,0 a 67.16,18 0 1,0 -134.32,0"></path><text x="99.02" y="-280.2" text-anchor="middle" font-family="'Times-Roman',serif" font-size="14" fill="#000000">Under Review</text></g><g class="node"><title>fcp</title><path stroke="#000000" fill="none" d="M 99.02,-195.6 m -99.04,0 a 99.04,18 0 1,0 198.08,0 a 99.04,18 0 1,0 -198.08,0"></path><text x="99.02" y="-191.4" text-anchor="middle" font-family="'Times-Roman',serif" font-size="14" fill="#000000">Final Comment Period</text></g><g class="node"><title>active</title><path stroke="#000000" fill="none" d="M 99.02,-106.8 m -36.56,0 a 36.56,18 0 1,0 73.12,0 a 36.56,18 0 1,0 -73.12,0"></path><text x="99.02" y="-102.6" text-anchor="middle" font-family="'Times-Roman',serif" font-size="14" fill="#000000">Active</text></g><g class="node"><title>resolved</title><path stroke="#000000" fill="none" d="M 99.02,-18 m -46.95,0 a 46.95,18 0 1,0 93.9,0 a 46.95,18 0 1,0 -93.9,0"></path><text x="99.02" y="-13.8" text-anchor="middle" font-family="'Times-Roman',serif" font-size="14" fill="#000000">Resolved</text></g><g class="relation" style="opacity: 1;"><title>issue-&gt;pending</title><path stroke="#000000" fill="none" d="M 99.02,-443.85 C 99.02,-431.72,99.02,-415.22,99.02,-401.32"></path><path class="solid" stroke="#000000" fill="#000000" d="M 102.52,-401.31 L 99.02,-391.31,95.52,-401.31 Z"></path><text x="138.65" y="-413.4" text-anchor="middle" font-family="'Times-Roman',serif" font-size="14" fill="#000000"> rfc-pr created</text></g><g class="relation" style="opacity: 1;"><title>pending-&gt;under_review</title><path stroke="#000000" fill="none" d="M 99.02,-355.05 C 99.02,-342.92,99.02,-326.42,99.02,-312.52"></path><path class="solid" stroke="#000000" fill="#000000" d="M 102.52,-312.51 L 99.02,-302.51,95.52,-312.51 Z"></path><text x="178.71" y="-324.6" text-anchor="middle" font-family="'Times-Roman',serif" font-size="14" fill="#000000"> core team member assigned</text></g><g class="relation" style="opacity: 1;"><title>under_review-&gt;under_review</title><path stroke="#000000" fill="none" d="M 159.04,-292.5 C 173.43,-291.87,184.1,-289.17,184.1,-284.4,184.1,-280.82,178.1,-278.41,169.03,-277.16"></path><path class="solid" stroke="#000000" fill="#000000" d="M 169.31,-273.67 L 159.04,-276.3,168.7,-280.64 Z"></path><text x="211.12" y="-280.2" text-anchor="middle" font-family="'Times-Roman',serif" font-size="14" fill="#000000"> revisions</text></g><g class="relation" style="opacity: 1;"><title>under_review-&gt;fcp</title><path stroke="#000000" fill="none" d="M 52.94,-271.29 C 41.84,-266.1,31.3,-258.75,24.74,-248.4,16.29,-235.08,25.87,-224.25,40.64,-216"></path><path class="solid" stroke="#000000" fill="#000000" d="M 42.44,-219.01 L 49.84,-211.44,39.33,-212.74 Z"></path><text x="89.16" y="-235.8" text-anchor="middle" font-family="'Times-Roman',serif" font-size="14" fill="#000000"> core team approval     </text></g><g class="relation" style="opacity: 1;"><title>fcp-&gt;under_review</title><path stroke="#000000" fill="none" d="M 133.78,-212.65 C 148.48,-221.85,160.65,-234.36,153.02,-248.4,150.08,-253.81,145.9,-258.51,141.16,-262.56"></path><path class="solid" stroke="#000000" fill="#000000" d="M 138.72,-260.01 L 132.76,-268.76,142.88,-265.64 Z"></path><text x="214.11" y="-235.8" text-anchor="middle" font-family="'Times-Roman',serif" font-size="14" fill="#000000">   revisions requested</text></g><g class="relation" style="opacity: 1;"><title>fcp-&gt;active</title><path stroke="#000000" fill="none" d="M 99.02,-177.45 C 99.02,-165.32,99.02,-148.82,99.02,-134.92"></path><path class="solid" stroke="#000000" fill="#000000" d="M 102.52,-134.91 L 99.02,-124.91,95.52,-134.91 Z"></path><text x="121.76" y="-147" text-anchor="middle" font-family="'Times-Roman',serif" font-size="14" fill="#000000"> merged</text></g><g class="relation" style="opacity: 1;"><title>active-&gt;resolved</title><path stroke="#000000" fill="none" d="M 99.02,-88.65 C 99.02,-76.52,99.02,-60.02,99.02,-46.12"></path><path class="solid" stroke="#000000" fill="#000000" d="M 102.52,-46.11 L 99.02,-36.11,95.52,-46.11 Z"></path><text x="172.11" y="-58.2" text-anchor="middle" font-family="'Times-Roman',serif" font-size="14" fill="#000000"> implementation complete</text></g></g></g></svg>